# xmcd CD database file
#
# Track frame offsets:
#	150
#	11222
#	20377
#	33170
#	41702
#	51687
#	60447
#	69275
#	80490
#	96252
#	112432
#	121717
#
# Disc length: 1780 seconds
#
# Revision: 0
# Processed by: cddbd v1.4PL0 Copyright (c) Steve Scherf et al.
# Submitted via: CDex 1.50Beta7
#
DISCID=a106f20c
DTITLE=Buck Owens  - Buckaroo   CD 1 of 3
DYEAR=1999
DGENRE=Country
TTITLE0=Together Again
TTITLE1=Buckaroo
TTITLE2=Close Up The Honkey Tonks
TTITLE3=Hello Trouble
TTITLE4=A-11
TTITLE5=Buck's Polka
TTITLE6=Gonna Have Love
TTITLE7=Memphis
TTITLE8=Dust On Mother's Bible
TTITLE9=Sweet Rosie Jones
TTITLE10=Let The World Keep On A Turnin'  (with Buddy Alan)
TTITLE11=I've Got You On My Mind Again
EXTD=YEAR: 1999
EXTT0=
EXTT1=
EXTT2=
EXTT3=
EXTT4=
EXTT5=
EXTT6=
EXTT7=
EXTT8=
EXTT9=
EXTT10=
EXTT11=
PLAYORDER=
